<svg xmlns="http://www.w3.org/2000/svg" width="60" height="60" fill="none" viewBox="0 0 60 60">
    <path fill="#B8BDC2" d="M57.273 32.727c-.818 0-1.364.546-1.364 1.364v17.727c0 .818-.545 1.364-1.363 1.364H5.455c-.819 0-1.364-.546-1.364-1.364V34.091c0-.818-.546-1.364-1.364-1.364-.818 0-1.363.546-1.363 1.364v17.727c0 2.318 1.772 4.091 4.09 4.091h49.092c2.318 0 4.09-1.773 4.09-4.09V34.09c0-.818-.545-1.364-1.363-1.364z"/>
    <path fill="#B8BDC2" d="M55.91 13.636H4.09C1.774 13.636 0 15.41 0 17.727v8.728C0 28.364 1.364 30 3.136 30.409l21.41 4.773v4.363c0 .819.545 1.364 1.363 1.364h8.182c.818 0 1.364-.546 1.364-1.364v-4.363l21.409-4.773c1.772-.41 3.136-2.046 3.136-3.955v-8.727c0-2.318-1.773-4.09-4.09-4.09zM32.726 38.182h-5.454v-5.455h5.454v5.455zm24.546-11.728c0 .682-.41 1.228-1.091 1.364l-20.727 4.636v-1.09c0-.819-.546-1.364-1.364-1.364h-8.182c-.818 0-1.363.545-1.363 1.363v1.091L3.817 27.818c-.682-.136-1.09-.682-1.09-1.363v-8.728c0-.818.545-1.363 1.363-1.363h51.818c.818 0 1.364.545 1.364 1.363v8.727zM36.818 4.09H23.182c-2.318 0-4.091 1.774-4.091 4.092v1.363c0 .819.546 1.364 1.363 1.364.819 0 1.364-.546 1.364-1.364V8.182c0-.818.546-1.364 1.364-1.364h13.636c.818 0 1.364.546 1.364 1.364v1.363c0 .819.545 1.364 1.363 1.364.819 0 1.364-.546 1.364-1.364V8.182c0-2.318-1.773-4.091-4.09-4.091z"/>
</svg>
